<?xml version="1.0" encoding="UTF-8" standalone="no"?>
<!-- Created with Inkscape (http://www.inkscape.org/) -->

<svg
   width="65.850311mm"
   height="41.566406mm"
   viewBox="0 0 65.850311 41.566406"
   version="1.1"
   id="svg1"
   xml:space="preserve"
   xmlns="http://www.w3.org/2000/svg"
   xmlns:svg="http://www.w3.org/2000/svg"><defs
     id="defs1" /><g
     id="layer1"
     transform="translate(-89.972712,-233.62371)"><path
       style="fill:#000000;stroke-width:0.999999"
       d="m 114.32276,274.64414 c -0.53451,-2.90732 -3.22001,-3.79046 -5.65531,-4.95056 -2.18178,-1.50057 -4.5583,-0.4286 -6.54521,0.91151 -0.1933,-1.58851 -0.93464,-3.96303 -1.05611,-4.79828 0.37332,-0.92071 -2.144727,-0.54407 -1.0354,-2.22997 -0.0291,-1.62244 2.64026,1.39864 2.95009,-0.86703 -0.71858,-1.11388 -1.7317,-3.41196 -2.995076,-1.2076 -0.797796,0.93025 0.671546,-3.39538 -1.549265,-2.7736 -1.016225,-1.01316 -3.699844,-3.72318 -0.728687,-2.80915 -1.18871,-2.66909 5.978108,-1.6145 2.764528,0.52441 0.50551,-1.20015 4.27557,-1.55001 1.93482,-2.71575 -2.33989,1.31895 -0.89188,-3.08176 -3.399843,-2.29904 -2.082142,-1.23152 -4.559421,2.58598 -5.526522,0.31219 0.754423,-1.922 -5.327583,-2.22109 -2.955807,-5.19977 0.04521,-1.68401 1.145601,-2.60536 2.240316,-1.12687 1.634467,-0.0552 -0.05616,-2.05349 1.911363,-2.18612 1.927376,-1.70396 4.855263,-1.6836 7.009403,-0.65893 0.72844,0.96663 1.47497,1.50409 1.75532,0.87973 2.319,0.9856 5.10914,-1.86316 7.2345,0.53266 1.10021,-0.32314 3.87827,0.44917 3.33521,-1.68237 -1.53601,-0.34928 -2.75898,-1.3269 -0.54126,-2.07864 -1.70314,-1.34945 3.41179,-1.46117 0.49919,-1.82761 0.23853,-0.92077 -1.28017,-1.49996 0.45966,-1.82094 2.95601,0.32192 5.5721,-1.29588 8.45828,-1.60018 2.28535,-0.99147 6.43316,-2.8675 7.2039,0.92471 0.0888,0.73763 2.05038,-0.0502 2.47008,0.68827 0.91357,-0.46267 2.20383,0.55835 0.77424,0.97013 2.04888,1.23649 5.79528,-3.44808 5.72192,-0.74897 2.72399,1.32402 3.43925,5.50641 5.98531,6.30584 1.56043,-0.49849 2.6777,1.16746 4.42606,0.24565 2.08021,0.22616 3.25032,3.8842 5.92365,2.51775 1.92955,2.1426 -3.31201,2.76663 -2.19218,5.21551 -1.9531,0.576 -5.19423,-1.06351 -4.92442,2.44189 0.77504,2.45224 -4.86669,-0.14663 -3.50224,2.66327 1.72675,2.50793 -0.81928,5.07146 -3.14467,5.96332 -1.81532,0.23279 -2.82583,2.2954 -4.52816,1.99782 -1.82879,-0.86685 -5.13603,3.29228 -1.77758,4.38421 1.89439,1.4453 -0.20516,3.28187 -1.76807,1.95301 -1.23899,0.96803 -4.25861,2.35488 -3.1828,-0.61579 -0.31837,-2.27993 -2.14227,-0.8779 -2.49598,0.38194 -2.03186,1.58062 -4.06277,0.62019 -6.50152,0.31597 -2.55142,0.80231 -3.67175,3.9629 -6.22891,4.54627 -0.24247,0.33271 -0.68556,-0.69166 -0.82282,-0.47889 z m 26.14473,-14.44359 c 2.46842,-2.06416 -4.77482,-0.29227 -0.9848,0.0659 0.32674,0.0392 0.67172,0.061 0.9848,-0.0659 z"
       id="path1" /></g></svg>
