<?xml version="1.0" encoding="UTF-8" standalone="no"?>
<!-- Created with Inkscape (http://www.inkscape.org/) -->

<svg
   width="133.31152mm"
   height="84.149612mm"
   viewBox="0 0 133.31152 84.149612"
   version="1.1"
   id="svg1"
   xml:space="preserve"
   xmlns="http://www.w3.org/2000/svg"
   xmlns:svg="http://www.w3.org/2000/svg"><defs
     id="defs1" /><g
     id="layer1"
     transform="translate(-89.972713,-191.04048)"><path
       style="fill:#000000"
       d="m 139.26848,274.08481 c -1.08211,-5.88576 -6.5188,-7.67363 -11.44897,-10.02222 -4.41693,-3.03785 -9.2281,-0.86768 -13.25053,1.84533 -0.39133,-3.21589 -1.89214,-8.02302 -2.13806,-9.71394 0.75578,-1.86395 -4.34192,-1.10145 -2.09612,-4.5145 -0.059,-3.28457 5.3451,2.8315 5.97233,-1.75527 -1.45472,-2.255 -3.50576,-6.90739 -6.06341,-2.44475 -1.61511,1.88326 1.35951,-6.87381 -3.13643,-5.61504 -2.05731,-2.0511 -7.490196,-7.53744 -1.4752,-5.68703 -2.4065,-5.40347 12.10245,-3.26849 5.59668,1.06166 1.02339,-2.42966 8.65574,-3.13794 3.91698,-5.49793 -4.73703,2.67015 -1.80558,-6.23891 -6.88286,-4.65432 -4.21522,-2.49317 -9.230378,5.23522 -11.188238,0.632 1.5273,-3.891 -10.785494,-4.49651 -5.983922,-10.52673 0.09153,-3.40921 2.319226,-5.27445 4.535437,-2.2813 3.308917,-0.11177 -0.113687,-4.15723 3.869482,-4.42572 3.901901,-3.44962 9.829301,-3.40839 14.190271,-1.33399 1.47471,1.95691 2.98602,3.04498 3.55358,1.78098 4.69474,1.99532 10.34327,-3.77189 14.64598,1.07835 2.22733,-0.65418 7.85142,0.90933 6.75202,-3.40589 -3.10961,-0.70711 -5.58546,-2.68627 -1.09576,-4.20813 -3.44796,-2.73191 6.90704,-2.95808 1.01058,-3.69994 0.48289,-1.86405 -2.59166,-3.03661 0.93057,-3.68642 5.98433,0.65172 11.28051,-2.62345 17.12346,-3.2395 4.62662,-2.0072 13.0237,-5.80514 14.58404,1.87205 0.17984,1.49329 4.15091,-0.10162 5.00058,1.39336 1.84949,-0.93665 4.46158,1.13036 1.56743,1.964 4.14787,2.50322 11.73233,-6.98051 11.5838,-1.51627 5.51463,2.68044 6.96264,11.14754 12.11705,12.76595 3.15902,-1.00918 5.4209,2.36347 8.96038,0.49731 4.21132,0.45785 6.58016,7.86342 11.99221,5.09709 3.90631,4.33761 -6.70504,5.60094 -4.43797,10.5586 -3.95399,1.16609 -10.51553,-2.15303 -9.96931,4.94352 1.56904,4.96447 -9.85244,-0.29684 -7.09015,5.39168 3.49573,5.07723 -1.65861,10.267 -6.36627,12.07253 -3.67506,0.47127 -5.72079,4.64695 -9.16709,4.04451 -3.70233,-1.7549 -10.3977,6.66511 -3.59865,8.87568 3.83512,2.92594 -0.41535,6.64401 -3.5794,3.95379 -2.50829,1.95973 -8.6214,4.76736 -6.44345,-1.24665 -0.64453,-4.61562 -4.33695,-1.77727 -5.05302,0.77323 -4.11343,3.19991 -8.22494,1.25554 -13.16209,0.63966 -5.16526,1.62426 -7.43332,8.02276 -12.61019,9.20377 -0.49087,0.67355 -1.3879,-1.40024 -1.66577,-0.96951 z M 192.1975,244.8443 c 4.99724,-4.1788 -9.66643,-0.59168 -1.99369,0.13345 0.66148,0.0793 1.35988,0.1236 1.99369,-0.13345 z"
       id="path1" /></g></svg>
