<?xml version="1.0" encoding="UTF-8" standalone="no"?>
<!-- Created with Inkscape (http://www.inkscape.org/) -->

<svg
   width="71.995018mm"
   height="37.704563mm"
   viewBox="0 0 71.995018 37.704563"
   version="1.1"
   id="svg1"
   xml:space="preserve"
   xmlns="http://www.w3.org/2000/svg"
   xmlns:svg="http://www.w3.org/2000/svg"><defs
     id="defs1" /><g
     id="layer1"
     transform="translate(-5.7849367,-231.05117)"><path
       style="fill:#000000"
       d="m 42.447731,268.75574 c -0.139339,-2.26015 -0.955755,-3.54282 -3.133736,-2.20376 -2.231698,0.85653 -4.193764,-0.79065 -6.155849,-0.45398 -0.26716,0.0231 -1.108586,0.39525 -1.574832,-0.87907 -1.270909,-0.53205 -2.234938,-0.34046 -2.562364,-1.71165 -2.367038,0.88554 -3.115609,-3.6204 -5.349436,-2.54248 -1.926056,-1.80531 -4.378979,-3.33476 -6.463629,-4.51309 -1.587756,0.42082 -1.452669,2.37111 -2.837398,0.45791 -2.200603,-1.77731 -4.7301154,-2.86774 -6.7297222,-4.56508 -1.2343244,-0.0252 -0.7880923,-3.3887 -1.8558279,-4.51391 0.9954124,-1.39207 2.6403195,1.88078 2.9486483,-0.78401 -0.5149935,-2.02484 -3.5200024,-5.17335 -0.499455,-6.60792 3.4234958,0.23432 3.1569728,-5.19932 6.2492838,-4.51455 2.177779,0.32965 4.234683,0.71344 5.652193,-1.37177 2.278828,0.42658 4.483197,2.23015 6.90457,0.64189 1.978333,-1.41096 4.702032,-0.39492 6.190822,-2.47933 1.836584,-1.76321 4.654314,-1.0651 6.958087,-1.65728 1.919248,-0.0958 4.927328,0.87744 4.888885,2.41327 1.329968,1.20936 -1.876027,3.60144 0.616346,4.71813 -0.464546,2.59733 0.152725,5.31812 2.795071,6.61257 1.577876,-0.27994 3.361259,-0.40911 4.622728,1.379 3.319311,0.64734 6.778783,1.94996 9.940894,1.37714 1.943379,1.28695 2.092496,3.72633 4.868586,3.59484 -0.519711,-2.10284 2.688297,0.88841 2.285646,-1.17854 1.548663,-0.99939 3.263735,-3.81098 4.926787,-1.01481 1.796861,2.10813 1.388808,3.95965 2.312462,6.13879 0.456689,2.26685 0.571317,5.13404 -0.48629,7.2332 -1.676936,-0.65631 -0.384791,4.32762 -2.533216,2.38948 -0.928675,0.83396 -2.579773,-2.02386 -3.005263,0.14487 -0.998654,-0.99251 -4.966448,0.19508 -2.621238,-2.11645 -0.485358,-0.97877 -1.680445,-0.68217 -1.107269,-1.96624 -1.937812,-0.75522 -2.829848,1.82446 -4.729935,0.35534 -2.433019,-0.19951 -3.026192,2.56366 -5.302587,2.68837 -1.533012,1.60636 -3.694455,4.35847 -6.152666,2.6936 -2.195705,-0.86038 -5.042359,-1.68578 -7.22574,-0.29049 -1.000161,0.49171 -1.452216,2.02337 -1.834556,2.52601 z"
       id="path2" /></g></svg>
